PathFileType	4	(X/Y/Z)	c:\Git\powerlifing_model_clean\simulations\HC835B\Session1\HC835B_CUT_0003\marker_experimental.trc
DataRate	CameraRate	NumFrames	NumMarkers	Units	OrigDataRate	OrigDataStartFrame	OrigNumFrames
240.000000	240.000000	4	38	mm	240.000000	20	81
Frame#	Time	RPSI			LPSI			RASI			LASI			RTH1			RTH2			RTH3			RTH4			RSK1			RSK2			RSK3			RSK4			RCAL1			RCAL2			RCAL3			RST			RPT			RTN			RFMB			RSMB			RVMB			RFMH			RSMH			RVMH			RPM			LTH1			LTH2			LTH3			LTH4			LSK1			LSK2			LSK3			LSK4			LCAL1			LCAL2			LCAL3			LFMH			LVMH			
		X1	Y1	Z1	X2	Y2	Z2	X3	Y3	Z3	X4	Y4	Z4	X5	Y5	Z5	X6	Y6	Z6	X7	Y7	Z7	X8	Y8	Z8	X9	Y9	Z9	X10	Y10	Z10	X11	Y11	Z11	X12	Y12	Z12	X13	Y13	Z13	X14	Y14	Z14	X15	Y15	Z15	X16	Y16	Z16	X17	Y17	Z17	X18	Y18	Z18	X19	Y19	Z19	X20	Y20	Z20	X21	Y21	Z21	X22	Y22	Z22	X23	Y23	Z23	X24	Y24	Z24	X25	Y25	Z25	X26	Y26	Z26	X27	Y27	Z27	X28	Y28	Z28	X29	Y29	Z29	X30	Y30	Z30	X31	Y31	Z31	X32	Y32	Z32	X33	Y33	Z33	X34	Y34	Z34	X35	Y35	Z35	X36	Y36	Z36	X37	Y37	Z37	X38	Y38	Z38	

21	0.08333333333333333	262.8390197753907	1027.614624023438	-54.24943161010744	169.5080871582032	1011.509826660156	1.348595380783081	213.2399597167969	982.387878417969	-255.1587066650391	20.00149536132813	932.1588134765627	-131.0576477050782	375.3936462402344	764.8171386718751	-329.3726196289063	336.6353149414063	766.1232910156251	-376.1182250976563	372.0307312011719	696.3074951171876	-378.8988647460938	326.6015014648438	691.0827026367189	-415.6315917968751	531.2440185546876	291.2597656250001	-435.3583984375001	507.5439453125001	275.7584533691407	-490.1204833984376	544.5065917968751	239.0223846435547	-458.3555603027345	511.8348693847657	218.7673950195313	-504.784881591797	598.5795288085939	96.73951721191409	-409.4468688964845	575.3795776367189	53.33111953735353	-400.631561279297	633.7484741210939	66.72190093994142	-426.248748779297	527.3605346679689	55.09040451049806	-457.2413635253907	628.0841674804689	75.43525695800783	-489.9883117675782	513.7217407226564	71.64330291748048	-515.1171264648439	510.7429809570314	61.18183898925783	-548.9766235351564	544.6824951171876	93.68017578125001	-572.5721435546876	626.8057250976564	51.38134384155275	-533.6201782226564	499.6311035156251	45.5007667541504	-598.9713745117189	538.5237426757814	61.62873840332033	-633.5859375000001	617.7399902343751	39.87986755371094	-612.9396362304689	510.105438232422	39.18659210205079	-686.3864746093751	89.77044677734376	620.2285156250001	-25.45852851867676	62.53942489624025	603.7557983398439	-77.07717895507814	101.3923034667969	538.5675048828126	-47.73010635375977	86.81784820556642	526.5258789062501	-106.0286941528321	309.1038818359376	451.9307861328126	188.4935302734375	322.8227844238282	402.1541442871095	200.6580505371094	341.7063293457032	436.1053771972657	231.8621826171876	368.1644592285157	386.5004272460939	233.1257934570313	456.4916076660157	507.7585449218751	324.3833618164063	447.106658935547	504.7886352539064	371.4240112304688	500.0550537109376	509.9908142089845	344.0957031250001	540.4164428710939	292.9605712890626	328.8366699218751	458.3856506347657	312.6459655761719	399.8151855468751	
22	0.08749999999999999	260.8899536132813	1024.601440429688	-72.50893402099611	167.7821350097657	1007.807678222656	-16.35198211669922	210.4418334960938	980.2855224609377	-274.3113098144532	17.50024223327637	929.2869873046877	-148.72509765625	371.7725219726563	761.4293823242189	-347.9535827636719	331.9247741699219	761.5590209960939	-393.8004150390626	367.7421875000001	691.9957275390626	-395.919158935547	322.2747192382813	686.1851196289064	-432.4953918457032	532.0063476562501	290.6269226074219	-439.6282043457032	510.2120666503907	272.8952941894532	-494.5632324218751	547.2130737304689	238.0783081054688	-460.7746582031251	517.0980224609376	216.0669250488282	-508.0697631835939	605.5433349609376	94.67498016357423	-409.7843627929689	580.1950683593751	52.45221328735353	-400.5855102539064	638.2644042968751	62.2299270629883	-426.4003906250001	532.2031860351564	55.1384620666504	-456.0546875000001	633.6624755859376	72.55738067626955	-490.2508544921876	518.1085815429689	70.90477752685548	-514.2020874023439	514.8957519531251	61.68605422973634	-548.1234130859376	549.5976562500001	93.09349060058595	-571.5836181640626	631.5688476562501	48.93133926391603	-534.4730224609376	501.9596557617189	45.81711959838868	-598.3881835937501	541.1707153320314	61.28121948242189	-633.1405639648439	620.1123657226564	38.12968826293946	-613.3339233398439	510.7537841796876	39.62833786010743	-685.2484741210939	83.43470001220705	615.8049316406251	-48.96164703369142	56.12081527709962	599.8947753906251	-100.7373352050782	94.08005523681642	533.7216796875001	-72.90286254882814	79.09614562988283	523.0310668945314	-131.447494506836	299.1698913574219	450.8192749023439	158.5168762207032	314.2579040527344	401.3501281738282	170.6366882324219	332.5181579589844	435.8806762695314	201.5572052001954	360.1975402832032	386.8040771484376	202.8435363769532	446.7313537597657	510.520233154297	293.5007019042969	437.966766357422	507.6596984863282	340.5641784667969	490.4990234375001	513.4207153320314	312.5978088378907	533.7405395507814	297.1771545410157	296.5717773437501	452.9541015625001	315.4359130859376	368.6407165527344	
23	0.09166666666666666	259.1606140136719	1021.4619140625	-90.55139923095705	166.3036804199219	1003.690368652344	-33.62243270874024	207.6857299804688	978.1500244140627	-293.1892089843751	15.22948741912842	926.2690429687502	-166.2626953125	368.4123535156251	758.3798217773439	-366.5017700195313	327.3139038085938	757.3485717773439	-411.2052612304689	363.6240234375001	687.8668823242189	-412.812469482422	318.0008544921876	681.4691772460939	-449.055877685547	533.3903808593751	291.5832519531251	-443.4205322265626	512.5400390625001	272.3830261230469	-498.2565917968751	549.3251953125001	238.6778717041016	-463.1674804687501	520.5806884765626	215.4649200439454	-510.8316955566407	610.2416381835939	93.63945770263673	-410.8227539062501	583.7684326171876	52.4231300354004	-400.9353942871095	642.0101318359376	60.0797576904297	-427.1166076660157	537.0228271484376	54.64835357666017	-455.2831420898439	638.0126953125001	70.6238250732422	-491.1456909179689	521.3222045898439	70.09642028808595	-514.2187500000001	517.8576049804689	61.639705657959	-547.8756713867189	553.1033325195314	92.28722381591798	-571.4304199218751	634.9779052734376	46.90428161621094	-535.4753417968751	503.8721008300782	46.03263473510743	-598.3710327148439	543.5103149414064	60.76200103759767	-633.2671508789064	619.0457763671876	38.14938735961915	-613.0563354492189	512.0040893554689	39.42842483520509	-684.9785156250001	77.11803436279298	610.5053100585939	-72.55312347412111	49.16424942016603	596.3570556640626	-124.4720993041992	86.53671264648439	529.1795043945314	-98.18411254882815	71.3278274536133	519.9366455078126	-157.0383758544922	289.3547668457032	449.4090576171876	128.0663604736328	305.6651916503907	400.3008422851564	140.2409210205078	323.4451293945313	435.3912353515626	170.8767395019532	352.2765197753907	386.9764709472657	171.9877319335938	437.2559509277345	512.5797119140626	262.2586059570313	429.1895751953126	509.3226623535157	309.3609313964844	481.2896423339845	516.0033569335939	280.8002319335938	526.7940063476564	300.2428283691407	263.5014953613282	446.7707824707032	317.2663574218751	336.7845764160157	
24	0.09583333333333333	257.5862121582032	1018.361877441406	-108.1914138793946	164.895248413086	999.373474121094	-50.48453903198244	204.8713684082032	976.067810058594	-311.6687011718751	13.21685028076172	923.0629882812502	-183.8637237548828	364.6529541015626	756.0091552734376	-384.1552124023439	323.3176574707032	753.8765258789064	-428.6324157714845	360.1441650390626	684.7097167968751	-429.3030090332032	313.8753051757813	677.2525024414064	-464.7806091308595	534.6498413085939	292.6631469726563	-448.7371826171876	513.3383178710939	272.0656127929688	-502.9721069335939	550.3907470703126	239.2594146728516	-467.3468627929689	521.7500000000001	215.0345916748047	-514.6170043945314	613.0748901367189	93.30745697021486	-411.8479003906251	586.0384521484376	52.47251129150392	-401.6644287109376	644.5233764648439	58.91003036499025	-428.1267089843751	539.7846679687501	54.89371871948244	-455.0684814453126	640.8921508789064	69.12476348876955	-492.3451232910157	523.1063232421876	69.0398406982422	-514.6954345703126	519.6324462890626	61.54613113403322	-548.1751098632814	555.3339843750001	91.51849365234376	-571.8133544921876	637.0841064453126	45.20429229736329	-536.4428710937501	505.4594116210939	45.89077758789063	-598.5856933593751	545.0148315429689	60.32048416137697	-633.8192749023439	620.1072387695314	37.28496932983399	-613.6522216796876	512.8602905273439	38.91933059692384	-685.2809448242189	70.48093414306642	605.4302368164064	-96.1421813964844	42.17535400390626	592.9980468750001	-148.2971343994141	78.77139282226564	525.0476074218751	-123.8360748291016	62.48452377319337	517.6681518554689	-182.4958648681641	279.6597595214844	448.0174255371095	97.29313659667972	297.1224975585938	399.0923767089845	109.1868438720703	314.4543762207032	434.5759887695314	139.6773529052735	344.2640686035157	386.5609436035157	140.5588836669922	428.1110229492189	513.8802490234376	230.8338775634766	420.3909301757814	510.5238037109376	277.9709167480469	472.2999267578126	517.5561523437501	248.9007110595704	519.6760253906251	302.4006347656251	229.5604400634766	440.458709716797	318.3675537109376	304.0342712402344	
